HIERARCHY
ROOT Hips
{
  OFFSET -32.5998 29.0326 120.673
  CHANNELS 6 Xposition Yposition Zposition Zrotation Xrotation Yrotation
  JOINT LeftUpLeg
  {
    OFFSET 8.64259 1.95398 -2.38835
    CHANNELS 3 Zrotation Xrotation Yrotation
    JOINT LeftLeg
    {
      OFFSET 43.7702 0 0
      CHANNELS 3 Zrotation Xrotation Yrotation
      JOINT LeftFoot
      {
        OFFSET 40.6238 0 0
        CHANNELS 3 Zrotation Xrotation Yrotation
        JOINT LeftToeBase
        {
          OFFSET 12.7242 0 0
          CHANNELS 3 Zrotation Xrotation Yrotation
          End Site
          {
            OFFSET 0 0 0
          }
        }
      }
    }
  }
  JOINT RightUpLeg
  {
    OFFSET -8.2249 1.95398 -2.59336
    CHANNELS 3 Zrotation Xrotation Yrotation
    JOINT RightLeg
    {
      OFFSET 43.5653 0 0
      CHANNELS 3 Zrotation Xrotation Yrotation
      JOINT RightFoot
      {
        OFFSET 40.6238 0 0
        CHANNELS 3 Zrotation Xrotation Yrotation
        JOINT RightToeBase
        {
          OFFSET 12.7242 0 0
          CHANNELS 3 Zrotation Xrotation Yrotation
          End Site
          {
            OFFSET 0 0 0
          }
        }
      }
    }
  }
  JOINT Spine
  {
    OFFSET 0.165834 0.87714 6.61349
    CHANNELS 3 Zrotation Xrotation Yrotation
    JOINT Spine1
    {
      OFFSET 7.38963 1.71661e-005 0
      CHANNELS 3 Zrotation Xrotation Yrotation
      JOINT Spine2
      {
        OFFSET 11.9445 1.14441e-005 0
        CHANNELS 3 Zrotation Xrotation Yrotation
        JOINT Spine3
        {
          OFFSET 14.7254 4.19617e-005 0
          CHANNELS 3 Zrotation Xrotation Yrotation
          JOINT Spine4
          {
            OFFSET 10.9679 0 0
            CHANNELS 3 Zrotation Xrotation Yrotation
            JOINT RightShoulder
            {
              OFFSET 2.46616 -1.6653 3.69651
              CHANNELS 3 Zrotation Xrotation Yrotation
              JOINT RightArm
              {
                OFFSET 13.0012 0 0
                CHANNELS 3 Zrotation Xrotation Yrotation
                JOINT RightForeArm
                {
                  OFFSET 28.7848 1.62311e-005 0
                  CHANNELS 3 Zrotation Xrotation Yrotation
                  JOINT RightHand
                  {
                    OFFSET 26.5688 1.62095e-005 0
                    CHANNELS 3 Zrotation Xrotation Yrotation
                    End Site
                    {
                      OFFSET 0 0 0
                    }
                  }
                }
              }
            }
            JOINT LeftShoulder
            {
              OFFSET 2.38034 -1.29275 -3.7523
              CHANNELS 3 Zrotation Xrotation Yrotation
              JOINT LeftArm
              {
                OFFSET 16.3182 6.07031e-005 0
                CHANNELS 3 Zrotation Xrotation Yrotation
                JOINT LeftForeArm
                {
                  OFFSET 27.0901 0 0
                  CHANNELS 3 Zrotation Xrotation Yrotation
                  JOINT LeftHand
                  {
                    OFFSET 24.5451 1.51738e-005 0
                    CHANNELS 3 Zrotation Xrotation Yrotation
                    End Site
                    {
                      OFFSET 0 0 0
                    }
                  }
                }
              }
            }
            JOINT Neck
            {
              OFFSET 5.0226 -0.0266342 0
              CHANNELS 3 Zrotation Xrotation Yrotation
              JOINT Head
              {
                OFFSET 6.69364 2.86102e-005 0
                CHANNELS 3 Zrotation Xrotation Yrotation
                End Site
                {
                  OFFSET 0 0 0
                }
              }
            }
          }
        }
      }
    }
  }
}
MOTION
Frames:	18
Frame Time:	0.0416667
25.2882 101.127 13.8466 -157.445 -81.028 -158.376 -171.982 -5.81967 91.2015 -12.5552 -1.53629 -0.592438 71.0111 6.03706 -4.20496 19.5672 -8.85072 9.31164 171.735 -4.25418 86.9495 -15.0466 -11.4814 -1.25012 67.8369 -4.64313 0.63312 28.5789 -0.430023 2.11146 0.309453 7.62429 -90.0429 11.6258 0.595504 -0.147308 -0.0450154 0.588446 -0.173386 -22.5813 0.612243 0.0384757 -2.56863 0.612251 0.0384832 91.1222 -28.2405 -105.162 44.1861 -20.0392 -5.61661 -13.6753 -16.2633 -24.4795 -8.9594 -0.176416 -3.04777 -86.5698 -48.2402 83.5922 -27.4756 22.9966 -12.6555 7.07986 -8.78414 -8.21696 1.65103 -0.0997902 -4.42118 4.47214 -1.57294 -1.4198 -7.42554 -1.37174 2.11223 
25.1145 101.12 13.9755 -160.185 -81.0937 -161.428 -172.245 -6.21448 90.8981 -12.0683 -1.41066 -0.387824 70.8031 6.17568 -3.62606 19.5291 -8.05793 7.8339 171.284 -4.326 86.5326 -15.374 -13.2499 -1.06045 67.6773 -4.74814 -0.953048 28.102 -0.414526 2.8708 0.314899 7.60818 -90.0992 11.6582 0.579912 -0.258095 -0.0126794 0.567987 -0.283376 -22.5488 0.630671 -0.0718688 -2.5362 0.630664 -0.0718785 91.6406 -27.2467 -104.457 44.9214 -19.9535 -5.19488 -13.8619 -16.8504 -24.5183 -9.24917 -0.239942 -2.40971 -87.0895 -49.2315 82.9631 -27.3454 23.1296 -11.3574 6.7374 -8.41681 -10.2697 -1.69724 -0.0952599 -6.14724 3.9441 -1.67731 -0.415801 -7.43723 -1.64108 1.66473 
24.7916 101.147 14.1927 -161.257 -81.157 -162.532 -172.439 -6.72883 90.9306 -11.3799 -1.44337 -0.0836968 70.4524 5.92623 -3.92262 19.7031 -8.18991 8.24614 171.127 -4.5784 86.5775 -15.3169 -13.025 -0.854367 67.8644 -4.81173 -0.82056 27.8547 -0.325501 2.93133 0.336716 7.60627 -90.0774 11.662 0.633499 -0.220296 -0.00882161 0.623191 -0.247966 -22.5452 0.670414 -0.0197092 -2.53253 0.670417 -0.0197118 91.656 -27.6255 -104.287 44.7013 -19.0993 -5.20024 -13.9307 -16.8162 -24.2896 -8.84459 -0.0965425 -4.23952 -87.0844 -48.4346 82.8358 -27.2027 24.1323 -10.7767 6.35208 -9.3222 -8.98867 0.352607 -0.0822863 -3.88796 4.15692 -1.70361 -1.06903 -7.88327 -1.55785 1.66694 
24.4633 101.137 14.2622 -161.918 -81.3047 -163.243 -172.422 -6.3108 91.0358 -11.6918 -1.01108 -0.0122277 70.212 5.78838 -3.78208 20.0341 -8.32204 8.81894 171.252 -4.64306 86.774 -15.1779 -12.7404 -0.864745 67.9475 -4.91896 -0.840984 27.9 -0.355678 2.97551 0.30999 7.57516 -90.1125 11.7244 0.56377 -0.283487 0.0535136 0.550745 -0.308033 -22.4826 0.622906 -0.100939 -2.46992 0.622902 -0.100945 91.5852 -27.3076 -104.55 44.3903 -19.5796 -5.14392 -14.2976 -18.0065 -24.577 -9.21674 -0.117304 -3.90649 -87.1873 -49.2374 82.8157 -27.4787 23.7054 -9.95146 6.29755 -9.39013 -8.33692 -0.633494 -0.0899673 -4.38339 4.04061 -1.59255 -0.533477 -7.61609 -1.53128 1.45764 
24.2603 101.125 14.2499 -165.708 -81.3132 -167.149 -172.283 -6.57968 91.2632 -11.6157 -0.512817 -0.120666 70.3639 5.85897 -3.96448 20.4459 -7.97297 8.58869 171.027 -4.74925 86.6855 -15.3336 -12.3085 -0.650407 68.1064 -5.0283 -0.845075 27.8056 -0.400531 3.31204 0.261319 7.59593 -90.1089 11.6826 0.468744 -0.266101 0.0117296 0.456576 -0.286479 -22.5241 0.527043 -0.112919 -2.51139 0.527038 -0.112924 91.6843 -27.3131 -104.341 44.3383 -19.3368 -5.22156 -13.8558 -16.4794 -24.6488 -9.60628 -0.156832 -3.44453 -87.23 -49.2454 82.7527 -28.2038 23.6467 -9.56469 6.49973 -8.52475 -8.63851 -1.39717 -0.0856826 -3.80074 3.90893 -1.75064 -0.794565 -7.07655 -1.63475 1.42771 
24.1083 101.136 14.3706 -166.031 -81.0897 -167.655 -172.154 -6.83614 91.2714 -11.5402 -0.384388 -0.19807 70.2533 5.88675 -3.99352 19.9011 -8.19797 8.45805 170.886 -4.96567 86.5199 -15.5034 -12.4035 -0.653136 68.295 -5.07873 -0.813436 27.9151 -0.410945 3.17182 0.267263 7.60963 -90.0949 11.6551 0.487138 -0.240008 -0.0157626 0.476103 -0.261219 -22.5516 0.536748 -0.0825011 -2.53897 0.536746 -0.0825012 91.6343 -27.1363 -104.51 44.5562 -19.186 -5.21405 -13.8759 -16.5823 -24.5886 -10.0643 -0.148529 -3.62745 -87.1933 -49.276 82.8136 -28.6956 23.3841 -9.33087 7.0221 -7.17722 -9.41638 -0.96442 -0.0670665 -2.71972 4.00734 -1.84003 -0.644493 -7.5413 -1.74804 1.25525 
23.9842 101.111 14.3845 -166.302 -81.3104 -167.755 -172.15 -6.54533 91.4905 -11.7417 -0.2852 -0.121293 70.3944 5.91532 -4.10053 19.8301 -8.47718 8.89703 171.164 -4.93348 86.8537 -15.2169 -12.2271 -0.70221 67.923 -4.80894 -0.475732 28.8039 -0.662811 2.66719 0.258345 7.58384 -90.1136 11.7069 0.460583 -0.274584 0.0360088 0.448062 -0.294596 -22.4997 0.521813 -0.123463 -2.4871 0.52182 -0.123457 91.577 -27.3492 -104.551 44.3514 -19.2773 -5.33697 -13.8593 -16.251 -24.8718 -10.9014 -0.159713 -3.65875 -87.0911 -49.0482 82.9301 -28.6577 23.0602 -9.71809 6.37703 -9.69932 -8.80231 -1.98947 -0.0949858 -5.19421 3.81966 -1.89372 -0.89727 -7.50802 -1.76032 1.31052 
23.9415 101.108 14.3592 -167.17 -81.4233 -168.4 -171.909 -6.19411 91.8507 -12.0275 0.126157 -0.245454 70.3671 5.90831 -4.06991 20.4097 -8.00211 8.6036 171.401 -4.9441 87.2184 -15.1731 -11.7837 -0.72082 68.0018 -4.87989 -0.594088 28.3265 -0.472783 2.71985 0.242093 7.56204 -90.1429 11.7504 0.414405 -0.328542 0.0794326 0.399549 -0.346474 -22.4561 0.493982 -0.188813 -2.44347 0.493992 -0.188802 91.6788 -27.4005 -104.321 44.4274 -19.4221 -5.369 -13.3545 -15.2226 -24.669 -11.435 -0.174548 -3.53592 -87.1768 -48.9587 82.7847 -28.3186 23.1094 -9.68551 6.1738 -10.7691 -9.52923 -1.84389 -0.09409 -5.54403 3.69905 -1.89865 -0.974523 -7.53392 -1.75731 1.41349 
24.109 101.145 14.425 -168.671 -80.9269 -169.976 -171.721 -6.79005 91.8862 -12.0495 0.311363 -0.398904 70.5918 5.97823 -3.97119 20.0445 -7.99629 8.22996 171.173 -5.60783 86.9617 -15.0039 -11.7668 -0.740937 68.1413 -5.03876 -0.831471 27.6664 -0.307298 3.17302 0.246941 7.62382 -90.1407 11.6268 0.425307 -0.324593 -0.0441333 0.410607 -0.343009 -22.5797 0.503197 -0.18177 -2.56707 0.503202 -0.181769 91.8024 -27.2807 -104.107 44.4409 -19.6889 -5.32442 -13.9541 -16.7794 -24.8483 -10.2755 -0.113624 -4.07038 -87.2029 -49.3868 82.8178 -27.4286 22.6867 -10.1746 6.4815 -10.0313 -9.68131 -1.1535 -0.0944904 -4.59314 3.90502 -1.80293 -0.707321 -7.80923 -1.70156 1.18175 
24.2774 101.127 14.2699 -169.605 -81.0978 -170.94 -171.897 -6.47011 91.67 -12.1867 0.534625 -0.357271 70.4353 5.9341 -3.82299 20.3471 -8.17452 8.86171 170.902 -5.27835 86.7133 -15.0855 -11.8718 -0.524503 68.0379 -4.97124 -0.639998 27.9336 -0.364167 2.95308 0.230063 7.60202 -90.1411 11.6703 0.39148 -0.322142 -0.000586711 0.376912 -0.339063 -22.5361 0.470189 -0.189597 -2.52342 0.470191 -0.189592 91.6774 -27.1338 -104.421 44.3861 -19.9529 -5.18954 -14.395 -18.5107 -24.6805 -9.55548 -0.096718 -4.20539 -87.1647 -49.7751 82.9411 -26.4364 23.0455 -10.5732 6.57027 -9.22152 -9.90269 -1.01976 -0.0944333 -4.71944 3.79036 -1.57795 -0.376033 -7.68426 -1.53222 1.07083 
24.3878 101.136 14.0858 -169.893 -81.1155 -171.006 -171.95 -6.09967 91.7514 -12.6065 0.467739 -0.238528 70.598 5.88748 -3.95743 19.4638 -8.39074 8.37591 171.265 -5.31651 87.0478 -14.788 -11.61 -0.702614 67.7279 -4.84176 -0.707856 28.3292 -0.493372 2.80244 0.269359 7.59554 -90.145 11.6835 0.467789 -0.338028 0.0125706 0.452454 -0.358287 -22.5231 0.547749 -0.18181 -2.51048 0.547751 -0.181807 91.7751 -27.4377 -104.108 44.3973 -19.9395 -4.85749 -14.418 -18.046 -24.9976 -9.24471 -0.101749 -4.10442 -87.3572 -49.454 82.5959 -25.645 24.9801 -10.9011 5.9505 -10.0607 -9.98387 -1.5032 -0.0940939 -5.00427 3.70691 -1.83154 -1.17423 -7.56303 -1.67677 1.95178 
24.6449 101.181 14.0555 -171.127 -80.4744 -172.513 -172.114 -7.18786 91.3464 -11.8265 0.355653 -0.147894 70.3919 5.92556 -3.89786 19.7866 -8.13396 8.22692 170.8 -5.70523 86.458 -15.2264 -11.9786 -0.693399 67.8411 -4.84425 -0.973774 28.0514 -0.455243 3.11929 0.245609 7.68378 -90.115 11.5068 0.434939 -0.273486 -0.164099 0.42248 -0.292374 -22.6998 0.497012 -0.130133 -2.68713 0.497028 -0.130125 91.6384 -27.4306 -104.394 44.2996 -19.8913 -4.83143 -13.2999 -15.2925 -24.5696 -9.60954 -0.156884 -3.44535 -87.4054 -49.6607 82.5587 -24.199 27.0961 -11.181 5.23542 -10.9459 -10.1612 -0.8966 -0.0936388 -4.55752 3.72221 -1.83209 -1.03885 -7.49009 -1.69698 1.89702 
24.6957 101.145 13.7162 -170.831 -81.0994 -171.682 -172.095 -5.82487 91.715 -12.7565 0.587001 -0.104355 70.6259 5.84742 -3.699 19.7892 -8.13991 8.24023 171.581 -5.18003 87.3387 -14.7124 -11.3272 -0.850719 67.3905 -4.63447 -0.810646 28.28 -0.5408 3.07835 0.262403 7.61146 -90.1609 11.6515 0.446582 -0.367116 -0.0193731 0.429997 -0.386423 -22.555 0.536268 -0.215925 -2.54232 0.536272 -0.215924 91.585 -27.5897 -104.448 44.4046 -19.6369 -4.9481 -14.8248 -18.4734 -25.3548 -9.20724 -0.117166 -3.89627 -87.4736 -49.0125 82.3423 -25.0398 26.0822 -11.2351 5.70614 -9.75515 -9.14811 -0.911269 -0.0929436 -4.59183 3.40722 -1.97707 -1.49313 -7.32542 -1.76939 2.05342 
24.8363 101.151 13.5401 -170.536 -81.1744 -171.369 -172.262 -5.6423 91.5229 -12.8281 0.332526 -0.0136688 70.7249 5.87743 -3.71321 19.3954 -8.58035 8.65165 171.589 -4.92493 87.3237 -14.8607 -11.3875 -0.853836 67.3629 -4.64516 -1.00362 28.1031 -0.442154 2.97617 0.244794 7.60751 -90.1582 11.6594 0.412787 -0.358338 -0.0115379 0.396626 -0.376167 -22.547 0.501395 -0.217713 -2.5344 0.501409 -0.217707 91.4465 -27.7 -104.694 44.3587 -19.7762 -4.97551 -14.7001 -18.0904 -25.432 -9.50532 -0.108053 -4.05166 -87.2945 -48.9528 82.6044 -25.3041 25.7108 -10.865 5.87007 -9.5141 -9.67518 -1.13535 -0.0921146 -4.64338 3.21209 -1.69923 -1.21845 -7.30305 -1.53286 1.7366 
25.056 101.16 13.4287 -168.698 -81.0166 -169.712 -172.523 -5.90292 91.0541 -12.6299 0.130559 0.0350855 70.4028 5.62907 -3.64684 19.5054 -8.8502 9.24889 171.222 -4.80396 86.7848 -14.8745 -11.9646 -0.768287 67.2759 -4.57456 -0.546121 29.2179 -0.721334 2.18852 0.266689 7.62049 -90.1473 11.6335 0.461505 -0.341413 -0.0374314 0.446036 -0.361403 -22.5731 0.542775 -0.186926 -2.56046 0.542777 -0.18693 91.3371 -27.7442 -104.903 44.2684 -20.0826 -4.97973 -13.8853 -16.7763 -24.8912 -10.0298 -0.15813 -3.55014 -87.2841 -49.1238 82.6496 -25.4091 25.639 -10.7679 5.94661 -9.49074 -9.72542 -1.44285 -0.0911856 -4.77896 3.08744 -1.54776 -1.02212 -7.3881 -1.42088 1.79226 
25.1364 101.193 13.395 -170.843 -80.8396 -171.949 -172.515 -6.24463 91.0199 -12.3138 -0.016854 0.0495329 70.5076 5.66999 -3.77679 18.6777 -8.51119 7.82998 171.095 -5.06901 86.6512 -14.9166 -11.6834 -0.78466 67.4721 -4.71217 -0.667927 28.1238 -0.408865 2.80649 0.240699 7.65026 -90.1424 11.5739 0.412231 -0.326244 -0.097056 0.397483 -0.344087 -22.6326 0.491223 -0.187272 -2.61994 0.491229 -0.18727 91.4149 -27.6929 -104.762 44.1849 -20.0508 -4.91753 -14.3186 -17.6145 -25.1966 -9.86333 -0.184041 -3.15871 -87.3012 -49.1503 82.6284 -25.2346 26.1165 -10.9761 5.74077 -9.79598 -9.52752 -1.56392 -0.0902242 -4.80933 3.14336 -1.57481 -1.09114 -7.38374 -1.43771 1.85951 
25.1343 101.203 13.3162 -172.526 -80.8549 -173.407 -172.071 -5.84636 91.5513 -12.8397 0.909979 -0.269368 70.6467 5.72285 -3.60437 19.2589 -8.50447 8.37934 171.269 -5.25135 86.9503 -14.4766 -11.0778 -0.740125 66.9415 -4.38677 -0.312031 28.7427 -0.636235 2.67191 0.235682 7.64414 -90.1792 11.5862 0.384955 -0.396871 -0.0847551 0.367116 -0.413437 -22.6201 0.48643 -0.262831 -2.60747 0.486436 -0.262833 91.521 -27.5317 -104.601 44.3415 -19.6372 -4.83911 -14.6764 -18.3817 -25.1782 -9.49053 -0.143111 -3.59976 -87.3715 -49.2801 82.5442 -25.1655 26.3103 -11.175 5.65703 -9.93888 -9.44308 -1.55265 -0.0892547 -4.87283 3.03535 -1.70445 -1.15268 -7.39735 -1.56168 1.99318 
25.1753 101.178 13.3636 -174.025 -80.3926 -175.286 -171.929 -6.44483 91.3879 -12.7209 1.2516 -0.510838 70.6712 5.97854 -3.46729 18.6167 -8.8437 8.35645 170.806 -5.52915 86.3231 -14.7987 -11.6878 -0.70399 67.1617 -4.39779 0.0127237 29.0928 -0.490594 1.44182 0.225589 7.68227 -90.1303 11.5098 0.387921 -0.299223 -0.161118 0.374367 -0.316011 -22.6966 0.459913 -0.168806 -2.68398 0.459913 -0.168807 91.517 -27.6349 -104.572 44.3335 -19.7431 -4.76509 -14.5683 -18.6228 -24.9496 -9.41803 -0.155199 -3.43168 -87.3725 -48.9805 82.4907 -25.5045 26.2042 -10.9918 5.65998 -9.95109 -9.74284 -1.69668 -0.0883239 -4.93759 3.04278 -1.74477 -0.881093 -7.8519 -1.62921 1.33814 
